<svg width="36" height="72" viewBox="0 0 36 72" fill="none" xmlns="http://www.w3.org/2000/svg">
  <path d="M15.0452 70.9236C14.8831 70.2287 14.6143 69.109 14.3626 67.9852C14.2154 67.3253 14.2176 66.6077 13.9424 66.0036C13.4774 64.9767 13.0295 63.8405 12.236 63.0796C11.3615 62.2403 10.1691 61.6238 9.00446 61.1722C6.12701 60.0566 4.66589 57.9389 3.83615 55.1778C3.26876 53.2911 2.47955 51.4641 1.72445 49.6351C1.58581 49.301 1.13147 49.0907 0.822186 48.8247C-0.370173 47.7978 -0.252857 45.0243 1.09095 44.0593C0.643013 43.6448 0.572623 43.3025 0.670742 42.5808C0.81792 41.5003 1.09521 40.2466 0.497967 39.0156C0.156683 38.3124 0.485169 37.2298 0.709136 36.3658C1.00136 35.2358 2.00601 34.3966 2.03161 33.0748C2.04654 32.3469 2.71204 31.6252 3.09599 30.9097C3.63991 29.8993 4.21583 28.9054 4.74055 27.8867C5.3058 26.7876 5.60442 25.6391 6.72 24.738C7.47935 24.1255 7.52201 22.7172 7.97208 21.7006C8.30056 20.9603 8.79329 20.2881 9.17724 19.5664C9.96859 18.0817 10.7215 16.5764 11.5342 15.1041C11.6387 14.9165 12.0163 14.7907 12.2744 14.7783C12.8951 14.7494 13.2278 14.5102 13.4518 13.9205C14.2261 11.8791 14.9684 9.81702 15.9304 7.85808C16.2887 7.12812 17.1782 6.61054 17.897 6.09091C18.3578 5.75892 18.9486 5.59396 19.484 5.36095C20.382 4.9671 21.2544 4.49489 22.1887 4.21239C23.1059 3.93401 23.7628 3.62058 23.8994 2.55451C24.0551 1.34409 25.9108 -0.0828475 27.1394 0.00375828C27.4743 0.0285028 27.8199 0.407919 28.0886 0.688357C28.415 1.03066 28.6837 1.42863 28.9482 1.82248C29.9188 3.27003 31.6273 2.9731 33.0031 3.47005C33.4596 3.63502 34.0376 3.97113 34.1784 4.35879C34.4536 5.11763 34.8567 5.51148 35.6736 5.54653C35.7974 5.55272 35.9147 5.67025 36 5.71562C35.1617 6.47239 34.46 7.18173 33.6771 7.79003C32.4954 8.70764 32.4464 9.86032 32.7514 11.1409C32.8773 11.6687 32.9306 12.2111 33.0415 12.741C33.1226 13.1348 33.1801 13.5493 33.3593 13.9019C33.7646 14.6917 34.6647 15.4258 33.4852 16.2836C33.4148 18.1951 31.4183 19.4859 31.6828 21.5129C31.702 21.6655 31.623 21.9171 31.5057 21.9831C30.2302 22.7007 30.1278 24.0637 29.586 25.1813C29.5412 25.2741 29.4346 25.3999 29.4644 25.4576C30.0873 26.633 29.3279 27.7671 29.3642 28.9239C29.3706 29.1281 29.4367 29.3569 29.3642 29.5322C28.3339 31.986 28.3233 34.6234 27.9564 37.1865C27.6983 38.9929 27.5447 40.7786 26.5912 42.4056C26.4441 42.6551 26.4377 43.0097 26.4441 43.3149C26.4931 45.5564 25.5375 47.4885 24.4795 49.3918C23.9889 50.2743 23.8204 51.3012 22.8222 51.9508C22.4297 52.2064 22.5598 53.1158 22.242 53.5983C21.8154 54.2499 21.1094 54.7304 20.6636 55.3737C20.0983 56.1883 19.4733 57.044 19.2323 57.9678C18.7652 59.7783 18.4644 61.6382 18.2575 63.4961C18.1466 64.4962 18.3556 65.5334 18.4474 66.55C18.5071 67.2305 18.6948 67.911 18.6692 68.5832C18.65 69.0492 18.362 69.5049 18.1957 69.9648C18.0741 69.9524 17.9504 69.94 17.8288 69.9276C18.0869 70.5731 18.345 71.2164 18.6607 72C17.4192 71.6309 16.4359 71.3381 15.0452 70.9236Z" fill="#FF1D6C" />
</svg>
  